<svg xmlns="http://www.w3.org/2000/svg" xmlns:xlink="http://www.w3.org/1999/xlink" width="800" zoomAndPan="magnify" viewBox="0 0 600 599.999999" height="800" preserveAspectRatio="xMidYMid meet" version="1.0"><defs><clipPath id="c1e079b9ba"><path d="M 11 116 L 589 116 L 589 491.429688 L 11 491.429688 Z M 11 116 " clip-rule="nonzero"/></clipPath></defs><rect x="-60" width="720" fill="#ffffff" y="-60" height="719.999999" fill-opacity="1"/><rect x="-60" width="720" fill="#ffffff" y="-60" height="719.999999" fill-opacity="1"/><g clip-path="url(#c1e079b9ba)"><path fill="#100f0d" d="M 501.644531 210.214844 C 531.15625 197.28125 558.824219 180.449219 583.929688 160.128906 C 588.902344 156.332031 589.875 149.199219 586.082031 144.222656 C 585.570312 143.554688 585.058594 142.992188 584.496094 142.476562 C 553.648438 115.742188 510.097656 109.378906 472.953125 126.160156 L 332.769531 189.484375 C 332.054688 189.789062 331.234375 189.839844 330.464844 189.585938 L 191 142.734375 C 169.941406 138.269531 148.011719 141.605469 129.207031 152.125 C 126.644531 153.460938 125.671875 156.640625 127.003906 159.207031 C 127.414062 159.976562 127.976562 160.644531 128.746094 161.105469 L 234.449219 228.429688 C 235.933594 229.355469 236.292969 231.304688 235.371094 232.792969 C 235.011719 233.304688 234.550781 233.714844 233.988281 233.921875 L 115.785156 287.339844 C 112.605469 288.777344 108.867188 288.519531 105.894531 286.621094 L 31.347656 239.71875 C 25.199219 235.871094 17.101562 237.71875 13.261719 243.875 C 10.851562 247.675781 10.59375 252.445312 12.542969 256.5 L 57.628906 350.867188 C 61.679688 359.4375 70.183594 364.980469 79.609375 365.289062 C 127.570312 366.878906 175.269531 357.4375 219.023438 337.679688 L 301.15625 300.578125 C 302.746094 299.914062 304.589844 300.632812 305.308594 302.222656 C 305.511719 302.785156 305.613281 303.402344 305.511719 304.019531 L 273.898438 485.570312 C 273.386719 488.445312 275.28125 491.164062 278.152344 491.625 C 278.972656 491.78125 279.84375 491.730469 280.664062 491.472656 C 298.851562 485.46875 314.425781 473.359375 324.726562 457.195312 L 420.382812 247.621094 C 420.691406 246.902344 421.253906 246.339844 421.921875 246.03125 L 501.644531 210.214844 " fill-opacity="1" fill-rule="nonzero"/></g></svg>