<svg xmlns="http://www.w3.org/2000/svg" xmlns:xlink="http://www.w3.org/1999/xlink" width="800" zoomAndPan="magnify" viewBox="0 0 600 599.999999" height="800" preserveAspectRatio="xMidYMid meet" version="1.0"><defs><clipPath id="f77c32bd63"><path d="M 0 32.25 L 600 32.25 L 600 567.75 L 0 567.75 Z M 0 32.25 " clip-rule="nonzero"/></clipPath></defs><rect x="-60" width="720" fill="#ffffff" y="-60" height="719.999999" fill-opacity="1"/><rect x="-60" width="720" fill="#000000" y="-60" height="719.999999" fill-opacity="1"/><g clip-path="url(#f77c32bd63)"><path fill="#ffffff" d="M 534.433594 298.667969 C 533.300781 298.355469 532.070312 298.582031 531.113281 299.277344 C 530.152344 299.976562 529.5625 301.066406 529.503906 302.25 L 526.976562 353.167969 C 526.890625 354.871094 527.921875 356.4375 529.523438 357.027344 L 541.597656 361.5 L 541.742188 376.378906 L 521.769531 369.082031 C 520.925781 368.773438 520 368.765625 519.140625 369.058594 L 496.292969 377.019531 L 496.144531 361.996094 L 508.058594 357.601562 C 509.695312 357.003906 510.730469 355.398438 510.613281 353.664062 L 507.101562 302.53125 C 507.023438 301.347656 506.410156 300.269531 505.4375 299.59375 C 504.46875 298.914062 503.242188 298.710938 502.097656 299.046875 L 445.128906 315.675781 L 445.023438 304.136719 L 502.644531 267.058594 C 503.835938 266.285156 504.523438 264.921875 504.425781 263.5 L 502.171875 230.695312 C 502.15625 226.609375 503.726562 222.757812 506.589844 219.835938 C 509.480469 216.890625 513.347656 215.246094 517.621094 215.207031 C 526.027344 215.207031 532.9375 222.011719 533.074219 230.402344 L 531.453125 263.09375 C 531.378906 264.515625 532.089844 265.867188 533.304688 266.617188 L 591.847656 302.742188 L 591.964844 314.277344 Z M 449.382812 403.140625 L 374.367188 403.140625 C 383.484375 372.964844 388.46875 339.117188 388.816406 303.894531 L 437.191406 303.894531 L 437.351562 320.917969 C 437.363281 322.140625 437.953125 323.289062 438.933594 324.023438 C 439.921875 324.75 441.179688 324.976562 442.363281 324.632812 L 476.003906 314.816406 C 473.761719 346.871094 464.347656 376.820312 449.382812 403.140625 Z M 307.195312 504.910156 C 324.742188 494.246094 340.753906 476.390625 354.105469 452.152344 C 361.015625 439.597656 366.96875 425.765625 371.898438 410.964844 L 444.710938 410.964844 C 414.425781 459.191406 364.984375 493.9375 307.195312 504.910156 Z M 271.824219 410.964844 L 363.664062 410.964844 C 344.269531 467.671875 310.476562 506.03125 271.824219 508.464844 Z M 271.824219 303.894531 L 381.019531 303.894531 C 380.65625 339.933594 375.320312 373.757812 366.21875 403.140625 L 271.824219 403.140625 Z M 271.824219 204.589844 L 368.507812 204.589844 C 376.207031 232.105469 380.6875 263.171875 381.019531 296.070312 L 271.824219 296.070312 Z M 271.824219 91.507812 C 312.214844 94.050781 347.300781 135.816406 366.199219 196.765625 L 271.824219 196.765625 Z M 449.414062 196.765625 L 374.347656 196.765625 C 368.976562 179.027344 362.210938 162.539062 354.105469 147.820312 C 340.742188 123.558594 324.710938 105.6875 307.148438 95.035156 C 367.933594 106.53125 419.644531 144.304688 449.414062 196.765625 Z M 475.089844 275.484375 L 443.09375 296.070312 L 388.816406 296.070312 C 388.5 263.839844 384.292969 232.765625 376.589844 204.589844 L 453.636719 204.589844 C 464.699219 226.199219 472.121094 250.078125 475.089844 275.484375 Z M 264 196.765625 L 169.621094 196.765625 C 188.523438 135.816406 223.605469 94.050781 264 91.507812 Z M 264 296.070312 L 154.804688 296.070312 C 155.132812 263.171875 159.609375 232.105469 167.316406 204.589844 L 264 204.589844 Z M 264 403.140625 L 169.605469 403.140625 C 160.503906 373.757812 155.164062 339.933594 154.804688 303.894531 L 264 303.894531 Z M 264 508.464844 C 225.34375 506.03125 191.554688 467.671875 172.15625 410.964844 L 264 410.964844 Z M 91.339844 410.964844 L 163.921875 410.964844 C 168.855469 425.765625 174.804688 439.597656 181.71875 452.152344 C 195.046875 476.355469 211.035156 494.199219 228.550781 504.863281 C 170.902344 493.808594 121.617188 458.960938 91.339844 410.964844 Z M 59.34375 303.894531 L 147.003906 303.894531 C 147.347656 339.117188 152.335938 372.964844 161.457031 403.140625 L 86.632812 403.140625 C 69.851562 373.757812 60.011719 339.933594 59.34375 303.894531 Z M 82.417969 204.589844 L 159.234375 204.589844 C 151.53125 232.765625 147.320312 263.839844 147.003906 296.070312 L 59.34375 296.070312 C 59.953125 263.171875 68.207031 232.105469 82.417969 204.589844 Z M 228.550781 95.105469 C 211.035156 105.773438 195.046875 123.617188 181.71875 147.820312 C 173.613281 162.539062 166.84375 179.027344 161.476562 196.765625 L 86.671875 196.765625 C 116.394531 144.78125 167.839844 106.75 228.550781 95.105469 Z M 597.796875 297.214844 L 539.378906 261.171875 L 540.898438 230.667969 L 540.898438 230.4375 C 540.78125 217.726562 530.339844 207.382812 517.621094 207.382812 L 517.398438 207.382812 C 511.183594 207.441406 505.363281 209.917969 501.007812 214.355469 C 496.648438 218.792969 494.28125 224.664062 494.34375 230.882812 L 494.351562 231.113281 L 496.464844 261.730469 L 482.386719 270.789062 C 479.082031 246.285156 471.617188 222.730469 460.453125 201.042969 L 460.496094 200.679688 C 460.496094 199.210938 459.671875 197.945312 458.472656 197.277344 C 446.871094 175.78125 431.589844 156.203125 413.105469 139.46875 C 373.257812 103.40625 321.695312 83.546875 267.910156 83.546875 C 185.308594 83.546875 113.378906 130.058594 76.910156 198.269531 C 76.621094 198.632812 76.398438 199.050781 76.257812 199.503906 C 60.4375 229.550781 51.46875 263.738281 51.46875 299.984375 C 51.46875 339.4375 62.085938 376.453125 80.601562 408.339844 C 80.777344 408.832031 81.042969 409.28125 81.386719 409.664062 C 119.066406 473.503906 188.566406 516.425781 267.910156 516.425781 C 382.929688 516.425781 477.46875 427 483.984375 312.488281 L 499.625 307.917969 L 502.609375 351.273438 L 490.851562 355.605469 C 489.304688 356.179688 488.28125 357.664062 488.292969 359.316406 L 488.519531 382.542969 C 488.527344 383.800781 489.148438 384.980469 490.179688 385.703125 C 490.847656 386.175781 491.636719 386.417969 492.429688 386.417969 C 492.867188 386.417969 493.300781 386.34375 493.722656 386.199219 L 515.742188 378.535156 C 481.835938 485.53125 380.546875 559.90625 267.910156 559.90625 C 124.59375 559.90625 7.996094 443.304688 7.996094 299.984375 C 7.996094 156.667969 124.59375 40.070312 267.910156 40.070312 C 359.398438 40.070312 445.195312 89.058594 491.816406 167.910156 C 492.917969 169.765625 495.316406 170.386719 497.175781 169.28125 C 499.035156 168.183594 499.652344 165.785156 498.550781 163.925781 C 475.273438 124.554688 442.089844 91.570312 402.582031 68.535156 C 361.871094 44.792969 315.304688 32.246094 267.910156 32.246094 C 120.28125 32.246094 0.171875 152.355469 0.171875 299.984375 C 0.171875 447.617188 120.28125 567.730469 267.910156 567.730469 C 326.710938 567.730469 382.503906 549.03125 429.269531 513.65625 C 474.101562 479.75 507.695312 431.703125 524.027344 378.238281 L 544.363281 385.667969 C 544.796875 385.828125 545.253906 385.90625 545.710938 385.90625 L 545.726562 385.90625 C 547.90625 385.835938 549.652344 384.160156 549.652344 381.996094 C 549.652344 381.800781 549.640625 381.613281 549.617188 381.433594 L 549.398438 358.730469 C 549.386719 357.105469 548.363281 355.664062 546.84375 355.097656 L 534.933594 350.6875 L 537.082031 307.492188 L 594.902344 323.183594 C 596.085938 323.503906 597.34375 323.25 598.316406 322.503906 C 599.285156 321.753906 599.847656 320.59375 599.835938 319.367188 L 599.65625 300.507812 C 599.640625 299.164062 598.941406 297.917969 597.796875 297.214844 " fill-opacity="1" fill-rule="nonzero"/></g></svg>